<svg width="550" height="550" viewBox="0 0 550 550" fill="none" xmlns="http://www.w3.org/2000/svg">
<circle cx="275" cy="275" r="275" fill="#22333B"/>
<path d="M550 255.444C548.774 241.389 546.934 227.944 543.868 214.5L441.472 273.167L362.375 217.556L362.988 213.278L527.926 165C522.408 152.778 516.276 141.167 509.532 130.167L371.572 170.5L399.777 29.3333C388.127 23.2222 375.864 18.3333 363.601 14.0556L329.877 182.722L318.227 186.389L234.838 127.722L296.767 0.611111C289.409 1.22935e-07 282.664 0 275.307 0C267.949 0 260.591 1.22935e-07 253.846 0.611111L202.954 105.111L120.178 47.0556C109.142 54.3889 98.718 62.9444 88.9075 72.1111L185.786 139.944L139.799 234.667L23.913 161.944C18.3947 173.556 14.1026 186.389 10.4236 199.222L94.4259 251.778L0 279.278C0 292.722 1.22631 305.556 3.67893 318.389L115.273 286L46.5998 427.167C54.5708 438.778 63.7681 450.389 72.9654 460.778L155.741 290.278L277.759 367.278L87.6812 476.056C98.1048 485.222 108.528 494.389 120.178 501.722L286.343 407L258.138 549.389C264.27 550 269.788 550 275.92 550C283.278 550 290.635 550 297.993 549.389L328.038 399.056L459.253 481.556C469.064 473 478.261 463.222 486.845 453.444L353.79 369.722L441.472 319.611L530.992 382.556C535.897 370.333 540.803 357.5 543.868 344.667L478.261 298.833L550 255.444ZM271.015 199.833L187.625 224.278L217.67 162.556L271.015 199.833ZM186.399 264.611L310.87 228.556L319.454 234.667L299.22 336.111L186.399 264.611ZM339.688 331.222L353.79 258.5L404.682 293.944L339.688 331.222Z" fill="#BCD274"/>
</svg>
