<svg data-v-decfdd8a="" version="1.0" xmlns="http://www.w3.org/2000/svg" xmlns:xlink="http://www.w3.org/1999/xlink" width="100%" height="100%" viewBox="0 0 340.000000 250.000000" preserveAspectRatio="xMidYMid meet" color-interpolation-filters="sRGB" style="margin: auto;"> <rect data-v-decfdd8a="" x="0" y="0" width="100%" height="100%" fill="none" fill-opacity="1" class="background"></rect><g data-v-decfdd8a="" fill="#000000" class="icon-text-wrapper icon-svg-group iconsvg" transform="translate(135,89.88306045532227)"><g class="iconsvg-imagesvg" transform="translate(0,0)"><g><rect fill="none" fill-opacity="0" stroke-width="2" x="0" y="0" width="70" height="70.23387881645881" class="image-rect"></rect> <svg filter="url(#colors5837311239)" x="0" y="0" width="70" height="70.23387881645881" filtersec="colorsf9405416856" class="image-svg-svg primary" style="overflow: visible;"><svg version="1.1" id="图层_1" xmlns="http://www.w3.org/2000/svg" xmlns:xlink="http://www.w3.org/1999/xlink" x="0px" y="0px" viewBox="0.8700008392333984 1.1000007390975952 89.69999694824219 90" enable-background="new 0 0 91.83 91.83" xml:space="preserve">
<path fill="#0C0C0C" d="M90.57,42.9c-0.2-2.3-0.5-4.5-1-6.7l-16.7,9.6l-12.9-9.1l0.1-0.7l26.9-7.9c-0.9-2-1.9-3.9-3-5.7L61.47,29
	l4.6-23.1c-1.9-1-3.9-1.8-5.9-2.5L54.67,31l-1.9,0.6L39.17,22l10.1-20.8c-1.2-0.1-2.3-0.1-3.5-0.1s-2.4,0-3.5,0.1l-8.3,17.1
	l-13.5-9.5c-1.8,1.2-3.5,2.6-5.1,4.1L31.17,24l-7.5,15.5L4.77,27.6c-0.9,1.9-1.6,4-2.2,6.1l13.7,8.6l-15.4,4.5
	c0,2.2,0.2,4.3,0.6,6.4l18.2-5.3L8.47,71c1.3,1.9,2.8,3.8,4.3,5.5l13.5-27.9l19.9,12.6l-31,17.8c1.7,1.5,3.4,3,5.3,4.2l27.1-15.5
	L42.97,91c1,0.1,1.9,0.1,2.9,0.1c1.2,0,2.4,0,3.6-0.1l4.9-24.6l21.4,13.5c1.6-1.4,3.1-3,4.5-4.6l-21.7-13.7l14.3-8.2l14.6,10.3
	c0.8-2,1.6-4.1,2.1-6.2L78.87,50L90.57,42.9z M45.07,33.8l-13.6,4l4.9-10.1L45.07,33.8z M31.27,44.4l20.3-5.9l1.4,1l-3.3,16.6
	L31.27,44.4z M56.27,55.3l2.3-11.9l8.3,5.8L56.27,55.3z"></path>
</svg></svg> <defs><filter id="colors5837311239"><feColorMatrix type="matrix" values="0 0 0 0 0.734375  0 0 0 0 0.8203125  0 0 0 0 0.453125  0 0 0 1 0" class="icon-fecolormatrix"></feColorMatrix></filter> <filter id="colorsf9405416856"><feColorMatrix type="matrix" values="0 0 0 0 0.99609375  0 0 0 0 0.99609375  0 0 0 0 0.99609375  0 0 0 1 0" class="icon-fecolormatrix"></feColorMatrix></filter> <filter id="colorsb3883724244"><feColorMatrix type="matrix" values="0 0 0 0 0  0 0 0 0 0  0 0 0 0 0  0 0 0 1 0" class="icon-fecolormatrix"></feColorMatrix></filter></defs></g></g> <g transform="translate(35,78.23387908935547)"><g data-gra="path-name" fill-rule="" class="tp-name iconsvg-namesvg"><g transform="scale(1)"><g><path d="" transform="translate(0, 0)"></path></g> <!----> <!----> <!----> <!----> <!----> <!----> <!----></g></g> <!----></g></g><defs v-gra="od"></defs></svg>